{"glyphs":{":":{"x_min":0,"x_max":292,"ha":292,"o":"m 81 130 l 212 130 l 212 0 l 81 0 z m 81 439 l 212 439 l 212 309 l 81 309 z"},"$":{"x_min":0,"x_max":527,"ha":527,"o":"m 226 14 q 178 15 135 22 q 93 29 65 42 l 65 138 q 84 131 103 126 q 121 121 140 117 q 159 113 180 111 q 201 109 226 108 l 226 215 q 195 220 165 227 q 134 235 110 250 q 86 265 71 290 q 56 315 56 354 q 56 387 67 412 q 79 437 101 455 q 123 474 155 485 q 186 496 226 500 l 226 551 l 303 551 l 303 502 q 339 500 376 494 q 413 488 443 477 l 443 380 q 368 405 303 408 l 303 299 q 334 294 364 286 q 394 278 418 263 q 441 248 456 223 q 471 198 471 159 q 471 96 427 61 q 384 25 303 16 l 303 -34 l 226 -34 z m 163 359 q 163 339 178 328 q 194 317 226 312 l 226 405 q 190 401 176 389 q 163 377 163 359 z m 364 157 q 364 177 349 188 q 334 198 303 204 l 303 112 q 364 120 364 157 z"},"?":{"x_min":0,"x_max":449,"ha":449,"o":"m 405 501 q 405 472 399 451 q 393 430 382 414 q 371 398 357 386 q 343 375 328 364 q 311 353 294 342 q 277 331 263 318 q 250 304 241 286 q 232 268 232 242 l 232 234 l 124 234 q 123 239 123 245 q 123 252 123 256 q 123 292 132 318 q 142 343 156 361 q 171 379 189 392 q 208 405 225 416 q 237 424 248 432 q 259 440 268 450 q 276 460 281 472 q 286 483 286 499 q 286 531 262 551 q 238 571 187 571 q 149 571 113 562 q 77 552 49 540 l 49 634 q 63 641 82 646 q 100 652 120 656 q 140 661 160 663 q 181 666 201 666 q 249 666 287 654 q 325 643 351 621 q 377 600 391 569 q 405 539 405 501 z m 115 130 l 246 130 l 246 0 l 115 0 z"},"<":{"x_min":0,"x_max":527,"ha":527,"o":"m 56 312 l 472 500 l 472 394 l 165 263 l 165 261 l 472 131 l 472 25 l 56 212 z"},"'":{"x_min":0,"x_max":210,"ha":210,"o":"m 157 384 l 54 384 l 54 653 l 157 653 z"},"=":{"x_min":0,"x_max":527,"ha":527,"o":"m 472 302 l 56 302 l 56 396 l 472 396 z m 472 114 l 56 114 l 56 208 l 472 208 z"},"a":{"x_min":0,"x_max":515,"ha":515,"o":"m 342 50 l 340 50 q 330 40 316 29 q 303 19 285 9 q 268 0 246 -6 q 225 -12 200 -12 q 166 -12 137 -2 q 107 9 86 29 q 65 48 53 76 q 42 104 42 139 q 42 177 55 208 q 69 238 94 259 q 119 280 154 291 q 188 302 230 302 q 261 302 287 298 q 313 294 333 289 l 333 308 q 333 324 327 340 q 321 355 309 367 q 296 379 276 386 q 256 393 228 393 q 192 393 157 385 q 122 377 81 362 l 81 452 q 117 468 157 476 q 197 484 241 485 q 292 485 331 472 q 370 459 396 437 q 422 415 435 385 q 448 354 448 319 l 448 141 q 448 94 449 60 q 450 26 451 0 l 347 0 z m 333 202 q 316 206 294 209 q 273 212 251 212 q 208 212 184 195 q 159 178 159 144 q 159 127 165 115 q 170 104 180 96 q 189 88 202 84 q 215 80 229 80 q 247 80 262 85 q 278 89 291 96 q 304 104 315 112 q 325 121 333 129 z"},"L":{"x_min":0,"x_max":538,"ha":538,"o":"m 198 653 l 198 100 l 503 100 l 503 0 l 78 0 l 78 653 z"},"3":{"x_min":0,"x_max":488,"ha":488,"o":"m 419 306 q 419 257 398 218 q 376 180 330 158 l 330 156 q 353 149 372 136 q 391 123 405 104 q 418 85 426 61 q 434 37 434 7 q 434 -41 419 -79 q 403 -118 372 -145 q 341 -172 294 -187 q 247 -202 184 -202 q 166 -202 146 -200 q 127 -198 108 -195 q 88 -191 70 -186 q 52 -180 37 -173 l 37 -72 q 64 -85 100 -94 q 136 -103 178 -103 q 216 -103 242 -94 q 268 -85 284 -70 q 300 -55 307 -35 q 314 -16 314 6 q 314 39 301 60 q 288 81 263 92 q 250 97 234 99 q 217 102 194 102 l 118 102 l 118 200 l 170 200 q 192 200 210 202 q 228 204 242 210 q 270 221 285 244 q 300 268 300 303 q 300 326 291 342 q 282 357 267 367 q 252 377 231 381 q 211 386 191 386 q 150 386 115 378 q 80 370 47 356 l 47 456 q 79 468 117 477 q 155 485 206 485 q 256 485 296 471 q 335 457 363 433 q 391 409 405 376 q 419 344 419 306 z"},";":{"x_min":0,"x_max":317,"ha":317,"o":"m 99 130 l 234 130 l 128 -201 l 5 -201 z m 94 439 l 226 439 l 226 309 l 94 309 z"},"J":{"x_min":0,"x_max":402,"ha":402,"o":"m 207 653 l 327 653 l 327 170 q 327 138 322 115 q 317 92 308 74 q 296 51 277 34 q 259 18 235 8 q 212 -3 185 -8 q 158 -12 129 -12 q 100 -12 72 -7 q 43 -2 24 5 l 24 107 q 46 99 70 94 q 95 89 119 89 q 165 89 186 110 q 207 132 207 174 z"},"V":{"x_min":0,"x_max":638,"ha":638,"o":"m 320 160 q 338 213 346 236 q 354 258 380 329 l 501 653 l 628 653 l 373 0 l 265 0 l 10 653 l 137 653 l 258 329 q 284 258 292 236 q 300 213 318 160 z"},"\"":{"x_min":0,"x_max":395,"ha":395,"o":"m 157 384 l 54 384 l 54 653 l 157 653 z m 341 384 l 238 384 l 238 653 l 341 653 z"},"7":{"x_min":0,"x_max":488,"ha":488,"o":"m 29 368 l 29 473 l 451 473 l 451 394 l 175 -189 l 56 -189 l 320 368 z"},"S":{"x_min":0,"x_max":577,"ha":577,"o":"m 399 188 q 399 212 387 228 q 375 243 354 253 q 333 263 307 269 q 281 275 252 281 q 214 289 179 301 q 145 312 118 332 q 92 353 76 384 q 61 415 61 462 q 61 514 79 552 q 97 590 128 615 q 159 641 200 653 q 242 666 294 666 q 347 666 399 655 q 452 645 490 629 l 490 526 q 439 546 393 555 q 346 564 305 564 q 246 564 214 543 q 182 521 182 479 q 182 454 193 438 q 203 421 221 411 q 239 400 263 394 q 286 388 312 382 q 354 374 392 362 q 430 351 459 330 q 488 310 505 277 q 522 244 522 192 q 522 140 503 101 q 483 62 448 37 q 412 12 360 0 q 309 -12 248 -12 q 195 -12 143 -2 q 92 9 58 28 l 58 129 q 106 108 152 98 q 198 89 247 89 q 275 89 302 94 q 330 98 351 109 q 373 121 386 140 q 399 159 399 188 z"},"}":{"x_min":0,"x_max":305,"ha":305,"o":"m 157 254 q 150 256 138 263 q 126 270 114 282 q 103 294 94 313 q 85 331 85 356 q 85 372 88 386 q 91 400 95 413 q 100 425 105 437 q 110 448 116 458 q 124 474 129 488 q 135 502 135 517 q 135 551 110 566 q 86 581 36 581 l 22 581 l 22 666 l 50 666 q 95 666 130 656 q 166 646 190 629 q 214 611 227 585 q 240 560 240 528 q 240 500 230 478 q 221 456 209 435 q 199 415 190 394 q 182 374 182 351 q 182 334 186 323 q 191 312 201 305 q 211 298 227 296 q 243 293 266 293 l 266 214 q 243 214 227 211 q 211 208 201 202 q 191 195 186 184 q 182 173 182 156 q 182 135 188 117 q 195 100 204 83 q 210 71 217 59 q 223 47 228 35 q 233 22 237 8 q 240 -5 240 -21 q 240 -53 227 -78 q 214 -104 190 -122 q 166 -140 130 -149 q 95 -159 50 -159 l 22 -159 l 22 -74 l 36 -74 q 84 -74 110 -59 q 135 -44 135 -10 q 135 9 125 28 q 116 47 106 68 q 98 85 92 106 q 85 126 85 151 q 85 176 94 194 q 103 212 114 225 q 126 237 138 244 q 150 251 157 252 z"},"Z":{"x_min":0,"x_max":601,"ha":601,"o":"m 553 653 l 553 588 l 203 100 l 557 100 l 557 0 l 44 0 l 44 64 l 394 553 l 53 553 l 53 653 z"},"x":{"x_min":0,"x_max":521,"ha":521,"o":"m 260 165 l 138 0 l 5 0 l 192 241 l 16 473 l 152 473 l 263 317 l 375 473 l 512 473 l 331 242 l 517 0 l 381 0 z"},")":{"x_min":0,"x_max":306,"ha":306,"o":"m 257 253 q 257 199 248 150 q 239 101 225 59 q 210 17 192 -19 q 173 -54 154 -82 q 134 -110 116 -131 q 97 -151 82 -164 l 20 -106 q 46 -78 70 -42 q 94 -6 112 38 q 130 82 141 135 q 152 189 152 253 q 152 318 141 371 q 130 425 112 469 q 94 513 70 549 q 46 584 20 613 l 82 671 q 97 658 115 638 q 134 617 154 589 q 173 561 192 526 q 210 490 225 448 q 239 406 248 357 q 257 309 257 253 z"},"&":{"x_min":0,"x_max":692,"ha":692,"o":"m 619 349 q 612 282 592 228 q 571 174 540 132 q 564 107 586 84 q 608 61 626 43 q 643 25 654 14 q 665 2 667 0 l 502 0 q 494 11 484 22 q 474 34 457 52 q 409 20 355 4 q 301 -12 245 -12 q 200 -12 163 0 q 126 13 100 35 q 73 58 59 91 q 44 123 44 163 q 44 196 54 223 q 65 250 83 272 q 100 294 123 312 q 146 330 171 345 q 152 363 136 381 q 121 399 109 419 q 97 438 91 460 q 84 482 84 507 q 84 544 97 574 q 110 603 135 624 q 160 644 196 655 q 232 666 277 666 q 323 666 359 656 q 395 646 420 627 q 445 607 459 579 q 473 550 473 513 q 473 479 462 453 q 452 426 435 405 q 417 383 394 366 q 371 348 346 333 q 370 308 401 276 q 432 245 466 209 q 482 238 492 272 q 503 307 506 349 z m 256 83 q 290 83 323 93 q 357 103 388 125 q 370 144 351 163 q 332 183 313 202 q 294 221 277 239 q 259 256 243 272 q 226 262 211 250 q 197 238 186 225 q 176 212 170 197 q 164 182 164 164 q 164 144 171 128 q 178 113 191 103 q 203 93 220 88 q 237 83 256 83 z m 204 510 q 204 495 208 482 q 213 470 222 457 q 231 445 244 432 q 257 419 273 404 q 290 415 305 426 q 319 438 330 450 q 341 463 347 477 q 353 492 353 508 q 353 537 333 554 q 314 571 278 571 q 260 571 246 566 q 232 561 223 553 q 213 544 208 533 q 204 522 204 510 z"},"_":{"x_min":0,"x_max":488,"ha":488,"o":"m 0 -69 l 488 -69 l 488 -134 l 0 -134 z"},"v":{"x_min":0,"x_max":491,"ha":491,"o":"m 486 473 l 303 0 l 188 0 l 5 473 l 127 473 l 193 292 q 221 216 245 140 l 247 140 q 267 206 297 290 l 363 473 z"},"O":{"x_min":0,"x_max":734,"ha":734,"o":"m 562 327 q 562 386 547 431 q 533 476 507 505 q 481 535 445 550 q 410 564 367 564 q 325 564 289 550 q 253 535 228 505 q 202 476 187 431 q 172 386 172 327 q 172 267 187 222 q 202 178 228 148 q 253 119 289 104 q 325 89 367 89 q 410 89 445 104 q 481 119 507 148 q 533 178 547 222 q 562 267 562 327 z m 686 327 q 686 252 664 190 q 643 127 602 83 q 562 38 502 13 q 443 -12 367 -12 q 292 -12 232 13 q 173 38 132 83 q 91 127 70 190 q 49 252 49 327 q 49 401 70 464 q 91 526 132 571 q 173 616 232 641 q 292 666 367 666 q 443 666 502 641 q 562 616 602 571 q 643 526 664 464 q 686 401 686 327 z"},"(":{"x_min":0,"x_max":306,"ha":306,"o":"m 49 253 q 49 309 58 357 q 66 406 81 448 q 95 490 114 526 q 132 561 152 589 q 171 617 190 638 q 209 658 224 671 l 286 613 q 260 584 236 549 q 212 513 194 469 q 175 425 165 371 q 154 318 154 253 q 154 189 165 135 q 175 82 194 38 q 212 -6 236 -42 q 260 -78 286 -106 l 224 -164 q 209 -151 190 -131 q 171 -110 152 -82 q 132 -54 114 -19 q 95 17 81 59 q 66 101 58 150 q 49 199 49 253 z"},"C":{"x_min":0,"x_max":584,"ha":584,"o":"m 396 564 q 347 564 306 548 q 265 532 235 501 q 206 471 189 426 q 172 380 172 322 q 172 265 188 221 q 203 177 231 148 q 259 119 300 104 q 341 89 393 89 q 430 89 468 95 q 507 101 541 112 l 541 9 q 506 -1 467 -7 q 427 -12 385 -12 q 302 -12 239 11 q 176 35 134 78 q 91 122 70 182 q 49 242 49 315 q 49 390 72 454 q 94 518 137 564 q 180 611 244 638 q 308 665 389 666 q 431 666 468 660 q 505 654 535 644 l 535 542 q 496 555 462 560 q 428 564 396 564 z"},"W":{"x_min":0,"x_max":910,"ha":910,"o":"m 454 481 q 435 390 410 293 l 336 0 l 217 0 l 10 653 l 137 653 l 216 393 q 251 271 273 171 l 276 171 q 298 278 326 390 l 394 653 l 517 653 l 584 390 q 612 279 634 171 l 637 171 q 664 289 694 393 l 773 653 l 900 653 l 693 0 l 574 0 l 500 293 q 476 392 457 481 z"},"A":{"x_min":0,"x_max":657,"ha":657,"o":"m 452 167 l 206 167 l 142 0 l 15 0 l 274 653 l 383 653 l 643 0 l 516 0 z m 328 496 q 294 394 267 325 l 245 267 l 414 267 l 391 325 q 364 394 330 496 z"},"f":{"x_min":0,"x_max":328,"ha":328,"o":"m 360 613 q 341 618 321 621 q 300 625 282 625 q 263 625 248 620 q 232 615 222 604 q 211 594 206 577 q 201 560 201 535 l 201 473 l 332 473 l 332 378 l 201 378 l 201 0 l 85 0 l 85 378 l 5 378 l 5 473 l 85 473 l 85 529 q 85 579 99 615 q 113 651 138 674 q 163 697 196 708 q 230 719 270 719 q 294 719 318 715 q 342 711 360 705 z"},"Q":{"x_min":0,"x_max":760,"ha":760,"o":"m 562 327 q 562 386 547 431 q 533 476 507 505 q 481 535 445 550 q 410 564 367 564 q 325 564 289 550 q 253 535 228 505 q 202 476 187 431 q 172 386 172 327 q 172 267 187 222 q 202 178 228 148 q 253 119 289 104 q 325 89 367 89 q 410 89 445 104 q 481 119 507 148 q 533 178 547 222 q 562 267 562 327 z m 575 83 q 587 87 603 90 q 619 93 635 95 q 652 97 669 98 q 686 99 702 99 l 711 99 l 711 -5 q 686 -3 649 -1 q 612 0 571 0 q 541 0 516 -1 q 492 -3 467 -5 q 442 -6 416 -8 q 389 -9 364 -9 q 287 -9 229 15 q 170 40 130 84 q 90 128 69 190 q 49 252 49 327 q 49 401 70 464 q 91 526 132 571 q 173 616 232 641 q 292 666 367 666 q 443 666 502 641 q 562 616 602 571 q 643 527 664 466 q 686 404 686 332 q 686 293 678 257 q 671 221 657 190 q 643 159 622 132 q 601 104 574 85 z"},"w":{"x_min":0,"x_max":749,"ha":749,"o":"m 374 345 q 360 274 341 208 l 284 0 l 170 0 l 5 473 l 127 473 l 188 275 q 209 206 225 142 l 227 142 q 241 204 260 275 l 314 473 l 436 473 l 489 275 q 506 212 522 142 l 524 142 q 541 208 561 275 l 622 473 l 744 473 l 579 0 l 465 0 l 408 208 q 388 277 375 345 z"},"-":{"x_min":0,"x_max":333,"ha":333,"o":"m 59 297 l 274 297 l 274 192 l 59 192 z"},"E":{"x_min":0,"x_max":568,"ha":568,"o":"m 198 100 l 519 100 l 519 0 l 78 0 l 78 653 l 501 653 l 501 553 l 198 553 l 198 384 l 458 384 l 458 284 l 198 284 z"},"s":{"x_min":0,"x_max":424,"ha":424,"o":"m 273 137 q 273 152 264 162 q 256 172 242 178 q 228 185 209 190 q 191 195 171 200 q 146 207 122 216 q 99 225 81 239 q 63 254 52 276 q 42 298 42 331 q 42 370 56 399 q 70 428 94 447 q 119 466 151 476 q 183 485 218 485 q 262 485 300 478 q 338 471 369 459 l 369 365 q 353 371 335 375 q 317 380 299 383 q 280 387 262 389 q 244 391 228 391 q 208 391 193 387 q 179 383 170 377 q 162 370 158 362 q 154 353 154 344 q 154 328 162 317 q 171 307 186 301 q 201 294 218 290 q 234 286 250 282 q 274 276 299 268 q 323 260 343 245 q 362 230 375 206 q 387 183 387 146 q 387 106 372 76 q 357 46 330 27 q 303 7 265 -3 q 227 -12 182 -12 q 137 -12 101 -5 q 65 2 42 13 l 42 106 q 80 92 112 87 q 144 82 172 82 q 193 82 212 85 q 230 88 244 95 q 257 102 265 112 q 273 123 273 137 z"},">":{"x_min":0,"x_max":527,"ha":527,"o":"m 472 212 l 56 25 l 56 131 l 362 261 l 362 263 l 56 394 l 56 500 l 472 312 z"},"l":{"x_min":0,"x_max":252,"ha":252,"o":"m 68 0 l 68 707 l 184 707 l 184 0 z"},"8":{"x_min":0,"x_max":556,"ha":556,"o":"m 278 381 q 324 392 349 418 q 374 444 374 483 q 374 505 366 522 q 358 538 345 549 q 333 560 315 565 q 298 571 278 571 q 258 571 241 565 q 223 560 210 549 q 197 538 190 522 q 182 505 182 483 q 182 444 207 418 q 232 392 278 381 z m 278 83 q 301 83 321 89 q 341 96 356 109 q 371 122 379 140 q 387 159 387 181 q 387 206 379 225 q 371 244 356 258 q 342 271 322 279 q 302 287 278 290 q 254 287 234 279 q 214 271 199 258 q 185 244 177 225 q 168 206 168 181 q 168 159 177 140 q 185 122 200 109 q 214 96 234 89 q 254 83 278 83 z m 278 -12 q 227 -12 184 2 q 142 16 112 41 q 82 66 65 101 q 49 136 49 177 q 49 209 57 235 q 66 261 81 281 q 96 301 116 315 q 136 330 160 338 l 160 340 q 115 360 89 396 q 62 432 62 482 q 62 525 79 559 q 96 593 125 617 q 155 641 194 653 q 233 666 278 666 q 322 666 362 653 q 401 641 430 617 q 459 593 476 559 q 493 525 493 482 q 493 432 467 396 q 441 360 396 340 l 396 338 q 419 330 440 315 q 460 301 475 281 q 490 261 498 235 q 507 209 507 177 q 507 136 490 101 q 474 66 444 41 q 414 16 371 2 q 329 -12 278 -12 z"},"\\":{"x_min":0,"x_max":294,"ha":294,"o":"m 181 -122 l -4 653 l 97 653 l 283 -122 z"},"e":{"x_min":0,"x_max":513,"ha":513,"o":"m 307 81 q 341 81 377 88 q 414 95 452 107 l 452 15 q 429 5 383 -3 q 336 -12 287 -12 q 236 -12 191 1 q 146 14 112 42 q 79 71 59 117 q 39 163 39 229 q 39 293 58 341 q 76 390 107 421 q 139 453 179 469 q 219 485 262 485 q 307 485 345 471 q 383 458 410 428 q 438 399 453 353 q 469 307 469 244 q 468 219 467 202 l 157 202 q 160 169 172 146 q 184 123 204 109 q 224 94 250 88 q 276 81 307 81 z m 261 395 q 239 395 222 386 q 205 378 192 365 q 180 351 172 332 q 165 313 163 292 l 349 292 q 349 313 343 332 q 337 351 326 365 q 315 378 299 386 q 283 395 261 395 z"},"b":{"x_min":0,"x_max":557,"ha":557,"o":"m 518 245 q 518 181 500 131 q 481 82 451 50 q 421 19 383 3 q 346 -12 308 -12 q 281 -12 259 -6 q 238 1 222 11 q 206 21 195 31 q 184 42 177 50 l 175 50 l 164 0 l 68 0 q 69 21 70 52 q 71 83 71 111 l 71 707 l 187 707 l 187 510 q 187 489 186 471 q 186 454 186 444 l 187 444 q 198 452 211 459 q 224 466 240 472 q 255 478 273 481 q 292 485 312 485 q 351 485 388 470 q 426 456 455 427 q 484 397 501 351 q 518 305 518 245 z m 398 239 q 398 283 388 315 q 377 347 360 364 q 342 381 323 387 q 305 393 286 393 q 261 393 234 382 q 208 372 187 355 l 187 128 q 193 121 203 112 q 213 104 226 96 q 238 89 253 85 q 268 80 284 80 q 312 80 334 92 q 355 103 369 124 q 384 145 391 174 q 398 203 398 239 z"},"%":{"x_min":0,"x_max":827,"ha":827,"o":"m 699 205 q 699 232 696 255 q 694 278 688 294 q 682 311 673 321 q 663 330 648 330 q 634 330 624 321 q 615 311 609 294 q 603 278 601 255 q 598 232 598 205 q 598 178 601 155 q 603 131 609 115 q 615 98 624 89 q 634 79 648 79 q 663 79 673 89 q 682 98 688 115 q 694 131 696 155 q 699 178 699 205 z m 492 205 q 492 258 503 298 q 515 338 535 364 q 556 391 585 404 q 614 417 648 417 q 683 417 712 404 q 741 391 761 364 q 782 338 794 298 q 805 258 805 205 q 805 151 794 112 q 782 72 761 45 q 741 19 712 6 q 683 -7 648 -7 q 614 -7 585 6 q 556 19 535 45 q 515 72 503 112 q 492 151 492 205 z m 683 622 l 207 -17 l 143 32 l 620 670 z m 229 454 q 229 481 227 504 q 224 527 218 543 q 212 560 203 570 q 193 579 179 579 q 164 579 155 570 q 145 560 139 543 q 133 527 131 504 q 128 481 128 454 q 128 427 131 404 q 133 380 139 364 q 145 347 155 338 q 164 328 179 328 q 193 328 203 338 q 212 347 218 364 q 224 380 227 404 q 229 427 229 454 z m 22 454 q 22 507 33 547 q 45 587 66 613 q 86 640 115 653 q 144 666 179 666 q 213 666 242 653 q 271 640 292 613 q 312 587 324 547 q 335 507 335 454 q 335 400 324 361 q 312 321 292 294 q 271 268 242 255 q 213 242 179 242 q 144 242 115 255 q 86 268 66 294 q 45 321 33 361 q 22 400 22 454 z"},"m":{"x_min":0,"x_max":852,"ha":852,"o":"m 673 288 q 673 303 672 316 q 671 330 668 339 q 663 361 647 374 q 632 387 604 388 q 588 388 572 383 q 556 379 540 371 q 524 363 510 351 q 496 340 484 326 l 484 0 l 368 0 l 368 288 q 368 303 367 316 q 366 330 364 339 q 358 361 343 374 q 328 387 299 388 q 284 388 268 383 q 251 379 236 371 q 220 363 205 351 q 191 340 179 326 l 179 0 l 63 0 l 63 473 l 159 473 l 170 407 l 172 407 q 182 422 198 436 q 213 450 233 461 q 253 472 277 478 q 300 485 327 485 q 374 485 411 464 q 448 443 468 399 l 470 399 q 483 418 500 434 q 517 450 538 461 q 558 472 582 479 q 605 485 632 485 q 683 484 718 464 q 752 443 771 407 q 775 397 779 386 q 782 375 784 362 q 787 348 788 332 q 789 315 789 293 l 789 0 l 673 0 z"},"#":{"x_min":0,"x_max":665,"ha":665,"o":"m 212 479 l 248 653 l 341 653 l 305 479 l 422 479 l 458 653 l 551 653 l 515 479 l 611 479 l 611 390 l 497 390 l 471 263 l 571 263 l 571 174 l 452 174 l 417 0 l 324 0 l 359 174 l 242 174 l 207 0 l 114 0 l 149 174 l 54 174 l 54 263 l 168 263 l 194 390 l 94 390 l 94 479 z m 261 263 l 378 263 l 404 390 l 287 390 z"},",":{"x_min":0,"x_max":317,"ha":317,"o":"m 99 130 l 234 130 l 128 -201 l 5 -201 z"},"n":{"x_min":0,"x_max":555,"ha":555,"o":"m 170 407 l 172 407 q 182 422 198 436 q 213 450 233 461 q 253 472 278 478 q 302 485 329 485 q 355 485 379 479 q 403 473 423 461 q 443 448 459 428 q 474 409 483 381 q 488 366 490 348 q 491 331 491 307 l 491 0 l 375 0 l 375 289 q 375 308 374 322 q 373 335 369 346 q 360 368 342 378 q 324 388 299 388 q 265 388 234 372 q 203 356 179 326 l 179 0 l 63 0 l 63 473 l 159 473 z"},"h":{"x_min":0,"x_max":560,"ha":560,"o":"m 184 514 q 184 478 183 454 q 182 430 179 411 l 181 411 q 191 425 206 438 q 221 452 239 462 q 256 472 279 479 q 302 485 329 485 q 353 485 375 480 q 397 476 416 466 q 436 456 451 440 q 467 425 478 403 q 487 385 492 361 q 496 338 496 304 l 496 0 l 380 0 l 380 289 q 380 311 378 324 q 376 338 372 349 q 361 370 342 379 q 323 388 299 388 q 265 387 237 372 q 208 356 184 326 l 184 0 l 68 0 l 68 707 l 184 707 z"},"z":{"x_min":0,"x_max":468,"ha":468,"o":"m 271 378 l 40 378 l 40 473 l 419 473 l 419 401 l 185 95 l 436 95 l 436 0 l 32 0 l 32 65 z"},"B":{"x_min":0,"x_max":623,"ha":623,"o":"m 551 479 q 551 437 532 402 q 513 366 469 343 l 469 341 q 494 333 514 320 q 534 307 549 289 q 563 271 571 249 q 579 226 579 198 q 579 174 572 147 q 564 120 545 94 q 526 68 494 47 q 462 25 414 13 q 402 10 387 7 q 373 5 355 3 q 338 1 316 1 q 295 0 268 0 l 78 0 l 78 653 l 305 653 q 378 653 422 639 q 456 628 480 611 q 504 593 520 572 q 536 551 544 527 q 551 503 551 479 z m 198 284 l 198 100 l 276 100 q 307 100 330 102 q 352 104 368 107 q 393 113 410 122 q 426 131 437 142 q 447 154 451 168 q 456 182 456 197 q 456 225 440 245 q 425 266 393 276 q 379 280 360 282 q 341 284 311 284 z m 306 384 q 354 384 378 394 q 405 405 417 425 q 428 445 428 470 q 428 496 415 516 q 402 536 370 546 q 357 550 339 552 q 322 553 296 553 l 198 553 l 198 384 z"},"K":{"x_min":0,"x_max":632,"ha":632,"o":"m 78 0 l 78 653 l 198 653 l 198 356 l 200 356 l 446 653 l 595 653 l 322 330 l 617 0 l 464 0 l 200 295 l 198 295 l 198 0 z"},"R":{"x_min":0,"x_max":628,"ha":628,"o":"m 562 457 q 562 389 524 341 q 486 293 407 271 l 407 269 l 601 0 l 458 0 l 280 253 l 198 253 l 198 0 l 78 0 l 78 653 l 277 653 q 326 653 369 648 q 411 642 441 631 q 499 609 530 566 q 562 522 562 457 z m 257 353 q 298 353 326 357 q 355 360 375 368 q 411 381 425 405 q 438 429 438 459 q 438 486 427 506 q 417 526 390 538 q 373 546 347 550 q 321 553 283 553 l 198 553 l 198 353 z"},"T":{"x_min":0,"x_max":570,"ha":570,"o":"m 345 0 l 226 0 l 226 553 l 15 553 l 15 653 l 556 653 l 556 553 l 345 553 z"},"P":{"x_min":0,"x_max":601,"ha":601,"o":"m 259 253 q 243 253 227 253 q 211 254 198 255 l 198 0 l 78 0 l 78 653 l 267 653 q 314 653 349 649 q 385 645 413 637 q 479 616 516 571 q 552 526 552 457 q 552 410 532 372 q 513 334 475 308 q 438 281 383 267 q 329 253 259 253 z m 198 356 q 208 354 224 354 q 240 353 257 353 q 305 353 338 361 q 371 369 391 383 q 411 396 419 416 q 428 436 428 459 q 428 488 415 509 q 402 530 369 542 q 352 548 327 551 q 302 553 265 553 l 198 553 z"},"|":{"x_min":0,"x_max":237,"ha":237,"o":"m 168 -227 l 68 -227 l 68 707 l 168 707 z"},"t":{"x_min":0,"x_max":379,"ha":379,"o":"m 353 0 q 333 -5 306 -9 q 279 -12 255 -12 q 196 -12 158 7 q 120 26 104 62 q 93 88 93 133 l 93 378 l 5 378 l 5 473 l 93 473 l 93 605 l 209 605 l 209 473 l 346 473 l 346 378 l 209 378 l 209 148 q 209 121 217 107 q 232 85 275 85 q 295 85 315 88 q 335 91 353 96 z"},"M":{"x_min":0,"x_max":826,"ha":826,"o":"m 414 175 q 436 252 467 341 l 580 653 l 748 653 l 748 0 l 628 0 l 628 331 q 628 404 634 500 l 630 500 q 622 472 610 438 q 599 403 587 369 l 452 0 l 375 0 l 239 369 q 227 403 216 438 q 205 472 196 500 l 192 500 q 198 410 198 332 l 198 0 l 78 0 l 78 653 l 245 653 l 358 342 q 386 265 411 175 z"},"g":{"x_min":0,"x_max":550,"ha":550,"o":"m 371 -12 q 371 -2 371 12 q 371 26 372 36 l 371 36 q 360 27 346 19 q 333 10 316 3 q 299 -4 279 -8 q 259 -12 238 -12 q 201 -12 165 1 q 129 15 101 44 q 73 73 56 118 q 39 164 39 228 q 39 292 56 340 q 74 388 103 420 q 131 452 169 469 q 206 485 246 485 q 289 485 323 467 q 356 448 378 420 l 380 420 l 385 473 l 486 473 l 486 -9 q 486 -50 479 -80 q 473 -110 459 -133 q 444 -160 420 -180 q 396 -200 365 -213 q 333 -226 296 -233 q 259 -239 218 -239 q 194 -239 172 -238 q 149 -236 130 -233 q 110 -229 94 -225 q 77 -221 66 -217 l 66 -123 q 98 -133 134 -139 q 169 -145 208 -145 q 286 -145 328 -115 q 371 -84 371 -23 z m 267 80 q 285 80 300 84 q 316 89 329 96 q 342 103 353 111 q 363 119 371 127 l 371 339 q 352 361 325 375 q 297 390 267 391 q 256 391 244 388 q 232 385 220 378 q 208 372 197 360 q 186 349 177 331 q 169 313 164 289 q 159 265 159 232 q 159 197 166 169 q 172 141 186 121 q 200 101 220 91 q 240 80 267 80 z"},"j":{"x_min":0,"x_max":263,"ha":263,"o":"m 196 -62 q 196 -128 175 -165 q 153 -203 111 -221 q 68 -239 10 -239 q -16 -239 -36 -236 q -57 -233 -76 -228 l -76 -133 q -60 -138 -41 -141 q -21 -145 -4 -145 q 20 -145 37 -139 q 55 -134 65 -121 q 74 -111 77 -94 q 81 -77 81 -53 l 81 473 l 196 473 z m 78 707 l 199 707 l 199 582 l 78 582 z"},"i":{"x_min":0,"x_max":249,"ha":249,"o":"m 66 473 l 182 473 l 182 0 l 66 0 z m 63 707 l 185 707 l 185 582 l 63 582 z"},"y":{"x_min":0,"x_max":514,"ha":514,"o":"m 5 473 l 129 473 l 200 302 q 240 204 256 157 l 258 157 q 271 194 310 293 l 383 473 l 509 473 l 204 -227 l 90 -227 l 198 26 z"},"@":{"x_min":0,"x_max":1024,"ha":1024,"o":"m 615 61 q 606 50 592 39 q 577 28 559 20 q 541 11 519 5 q 498 0 474 0 q 441 0 413 10 q 386 21 365 39 q 345 58 334 85 q 323 111 323 145 q 323 181 336 210 q 349 238 373 258 q 396 278 429 288 q 462 299 502 299 q 535 299 559 295 q 582 291 599 287 l 599 305 q 599 320 594 335 q 588 350 577 361 q 565 372 546 379 q 527 386 500 386 q 466 386 433 378 q 399 371 360 356 l 360 442 q 375 449 392 454 q 410 460 429 464 q 449 468 470 471 q 491 473 512 473 q 562 473 598 461 q 635 449 660 428 q 684 407 697 378 q 709 349 709 315 l 709 125 q 709 114 710 105 q 711 97 715 90 q 719 84 725 81 q 731 77 741 77 q 764 77 784 91 q 804 104 819 130 q 833 155 842 191 q 851 227 851 272 q 851 351 824 410 q 798 469 753 509 q 708 548 647 568 q 587 587 519 587 q 428 587 362 557 q 297 527 255 477 q 213 427 194 362 q 174 296 174 226 q 174 151 196 87 q 219 22 264 -25 q 309 -72 377 -98 q 445 -125 536 -125 q 576 -125 615 -121 q 653 -117 687 -110 q 721 -103 750 -94 q 779 -86 801 -77 l 801 -155 q 779 -164 748 -172 q 718 -181 682 -187 q 647 -194 609 -198 q 570 -202 533 -202 q 470 -202 413 -189 q 355 -177 306 -152 q 256 -127 216 -92 q 176 -56 147 -9 q 119 39 104 96 q 88 154 88 222 q 88 320 118 402 q 148 484 205 542 q 261 601 341 633 q 420 666 520 666 q 611 666 687 637 q 764 609 819 558 q 875 507 906 436 q 937 365 937 278 q 937 210 920 159 q 904 107 875 72 q 847 36 807 18 q 768 0 722 0 q 698 0 681 4 q 664 9 651 17 q 639 25 631 36 q 623 47 617 61 z m 599 204 q 583 208 564 211 q 544 214 522 214 q 482 214 458 198 q 435 183 435 149 q 435 133 440 122 q 445 110 454 103 q 463 96 476 92 q 488 88 501 88 q 518 88 532 93 q 547 97 560 104 q 572 111 582 119 q 592 127 599 135 z"},".":{"x_min":0,"x_max":292,"ha":292,"o":"m 81 130 l 212 130 l 212 0 l 81 0 z"},"p":{"x_min":0,"x_max":550,"ha":550,"o":"m 285 392 q 255 392 228 377 q 200 363 179 338 l 179 127 q 187 119 197 111 q 207 103 220 96 q 232 89 248 84 q 263 80 280 80 q 307 80 328 92 q 349 103 363 124 q 376 145 384 174 q 391 203 391 239 q 391 277 384 306 q 376 334 362 354 q 348 373 329 382 q 309 392 285 392 z m 300 -12 q 262 -12 231 2 q 200 16 180 36 l 178 36 q 178 26 179 9 q 179 -9 179 -30 l 179 -227 l 63 -227 l 63 473 l 165 473 l 170 420 l 172 420 q 193 448 227 467 q 261 485 305 485 q 344 485 381 470 q 418 456 447 426 q 476 396 493 351 q 511 306 511 243 q 511 177 492 129 q 474 81 443 50 q 413 18 376 3 q 339 -12 300 -12 z"},"X":{"x_min":0,"x_max":636,"ha":636,"o":"m 250 519 q 298 450 317 420 l 319 420 q 346 461 385 519 l 479 653 l 616 653 l 389 332 l 626 0 l 490 0 l 388 146 q 351 200 319 248 l 317 248 q 284 198 248 146 l 146 0 l 10 0 l 247 332 l 20 653 l 157 653 z"},"*":{"x_min":0,"x_max":528,"ha":528,"o":"m 290 470 l 367 519 l 450 547 l 479 459 l 396 431 l 304 425 l 303 422 l 374 364 l 429 287 l 354 232 l 299 310 l 266 395 l 262 395 l 229 310 l 173 232 l 99 287 l 154 364 l 225 422 l 224 425 l 132 431 l 49 459 l 78 547 l 161 519 l 238 470 l 240 472 l 218 561 l 218 653 l 310 653 l 310 561 l 288 472 z"},"Y":{"x_min":0,"x_max":634,"ha":634,"o":"m 318 372 l 492 653 l 625 653 l 377 263 l 377 0 l 257 0 l 257 263 l 10 653 l 143 653 l 316 372 z"},"c":{"x_min":0,"x_max":441,"ha":441,"o":"m 404 10 q 382 1 351 -6 q 319 -12 284 -12 q 232 -12 188 2 q 144 17 110 47 q 77 77 58 122 q 39 168 39 229 q 39 297 61 346 q 83 395 118 426 q 153 456 197 470 q 240 485 283 485 q 314 485 344 479 q 373 474 397 464 l 397 370 q 375 379 351 385 q 327 390 299 390 q 271 390 246 382 q 221 373 201 354 q 182 336 170 305 q 159 275 159 232 q 159 201 167 173 q 176 146 193 126 q 210 106 236 94 q 262 83 298 83 q 330 83 355 89 q 381 95 404 104 z"},"!":{"x_min":0,"x_max":292,"ha":292,"o":"m 211 653 l 199 234 l 93 234 l 82 653 z m 81 130 l 212 130 l 212 0 l 81 0 z"},"/":{"x_min":0,"x_max":294,"ha":294,"o":"m 4 -122 l 189 653 l 291 653 l 105 -122 z"},"[":{"x_min":0,"x_max":315,"ha":315,"o":"m 68 653 l 286 653 l 286 569 l 168 569 l 168 -62 l 286 -62 l 286 -146 l 68 -146 z"},"6":{"x_min":0,"x_max":550,"ha":550,"o":"m 284 87 q 305 87 323 94 q 342 100 355 114 q 369 128 377 149 q 384 171 384 200 q 384 231 376 252 q 368 272 354 284 q 339 296 321 301 q 302 306 279 306 q 251 306 221 300 q 192 293 166 280 q 166 229 175 192 q 184 155 199 132 q 215 109 237 98 q 258 87 284 87 z m 293 405 q 338 405 376 392 q 415 379 443 354 q 472 329 488 292 q 504 255 504 207 q 504 158 489 118 q 474 78 446 49 q 417 20 375 4 q 334 -12 281 -12 q 226 -12 182 9 q 139 29 108 68 q 78 106 62 161 q 46 215 46 283 q 46 360 65 430 q 84 499 122 552 q 159 604 214 635 q 269 666 340 666 q 381 666 415 657 q 449 649 468 640 l 468 540 q 439 551 409 559 q 379 566 349 566 q 319 566 291 556 q 263 545 240 523 q 216 500 199 464 q 181 429 172 379 l 174 379 q 229 404 293 405 z"},"r":{"x_min":0,"x_max":350,"ha":350,"o":"m 345 381 l 335 381 q 282 381 241 365 q 201 350 179 317 l 179 0 l 63 0 l 63 473 l 159 473 l 170 407 l 172 407 q 192 443 228 464 q 264 485 314 485 q 332 485 345 483 z"},"2":{"x_min":0,"x_max":499,"ha":499,"o":"m 418 329 q 418 293 404 263 q 390 233 365 205 q 339 177 305 151 q 270 124 229 96 l 229 94 q 297 98 330 98 l 458 98 l 458 0 l 44 0 l 44 71 q 95 106 142 140 q 188 174 223 205 q 258 236 278 265 q 299 294 299 323 q 299 340 292 352 q 286 363 275 371 q 263 378 248 382 q 232 385 214 385 q 179 385 137 374 q 94 363 49 341 l 49 439 q 64 447 84 455 q 104 463 127 470 q 150 477 176 481 q 202 485 230 485 q 271 485 306 475 q 341 464 366 445 q 391 425 405 396 q 418 367 418 329 z"},"{":{"x_min":0,"x_max":305,"ha":305,"o":"m 148 252 q 155 251 167 244 q 179 237 191 225 q 203 212 211 194 q 220 176 220 151 q 220 126 214 106 q 208 85 199 68 q 189 47 180 28 q 170 9 170 -10 q 170 -44 196 -59 q 221 -74 270 -74 l 283 -74 l 283 -159 l 255 -159 q 210 -159 175 -149 q 140 -140 115 -122 q 91 -104 78 -78 q 65 -53 65 -21 q 65 -5 69 8 q 72 22 77 35 q 82 47 88 59 q 95 71 101 83 q 110 100 117 117 q 124 135 124 156 q 124 173 119 184 q 114 195 104 202 q 94 208 78 211 q 62 214 39 214 l 39 293 q 62 293 78 296 q 94 298 104 305 q 114 312 119 323 q 124 334 124 351 q 124 374 115 394 q 106 415 96 435 q 84 456 75 478 q 65 500 65 528 q 65 560 78 585 q 91 611 115 629 q 140 646 175 656 q 210 666 255 666 l 283 666 l 283 581 l 270 581 q 219 581 195 566 q 170 551 170 517 q 170 502 176 488 q 182 474 189 458 q 195 448 200 437 q 206 425 210 413 q 214 400 217 386 q 220 372 220 356 q 220 331 211 313 q 203 294 191 282 q 179 270 167 263 q 155 256 148 254 z"},"9":{"x_min":0,"x_max":551,"ha":551,"o":"m 195 -103 q 274 -103 321 -56 q 368 -9 381 93 l 379 93 q 354 81 321 74 q 289 67 253 67 q 210 67 172 80 q 134 93 106 118 q 79 143 62 180 q 46 218 46 267 q 46 313 61 353 q 76 393 104 422 q 132 451 173 468 q 214 485 267 485 q 324 485 368 464 q 413 444 443 404 q 473 365 489 307 q 504 249 504 174 q 504 125 497 77 q 490 30 475 -12 q 459 -54 436 -89 q 412 -124 379 -149 q 345 -174 302 -188 q 258 -202 204 -202 q 163 -202 125 -194 q 88 -186 60 -172 l 60 -71 q 91 -86 127 -94 q 164 -103 195 -103 z m 268 167 q 297 167 328 173 q 358 179 384 193 q 383 246 374 283 q 365 320 349 343 q 333 365 312 375 q 291 386 265 386 q 243 386 225 379 q 207 372 194 358 q 181 344 173 323 q 166 302 166 274 q 166 244 173 224 q 181 203 194 190 q 208 178 227 172 q 246 167 268 167 z"}," ":{"x_min":0,"x_max":206,"ha":206,"o":""},"I":{"x_min":0,"x_max":276,"ha":276,"o":"m 78 0 l 78 653 l 198 653 l 198 0 z"},"H":{"x_min":0,"x_max":698,"ha":698,"o":"m 198 384 l 500 384 l 500 653 l 620 653 l 620 0 l 500 0 l 500 284 l 198 284 l 198 0 l 78 0 l 78 653 l 198 653 z"},"4":{"x_min":0,"x_max":528,"ha":528,"o":"m 155 95 l 156 94 q 196 98 250 98 l 300 98 l 300 219 l 416 219 l 416 98 l 501 98 l 501 0 l 416 0 l 416 -189 l 300 -189 l 300 0 l 32 0 l 32 83 l 210 473 l 328 473 z"},"~":{"x_min":0,"x_max":527,"ha":527,"o":"m 42 217 q 65 260 98 281 q 131 303 176 303 q 201 303 224 295 q 248 288 269 279 q 290 270 310 262 q 329 255 348 255 q 373 255 388 266 q 402 277 415 297 l 485 246 q 462 203 429 181 q 396 160 351 160 q 330 160 310 166 q 290 171 271 179 q 246 189 223 199 q 200 208 179 208 q 154 208 139 197 q 125 186 112 166 z"},"D":{"x_min":0,"x_max":689,"ha":689,"o":"m 78 0 l 78 653 l 251 653 q 274 653 298 652 q 321 650 344 647 q 366 645 387 640 q 408 636 426 630 q 478 614 518 585 q 558 557 585 519 q 612 480 626 432 q 640 385 640 329 q 640 276 628 230 q 617 184 593 146 q 569 108 532 79 q 496 50 446 31 q 405 16 352 8 q 299 0 233 0 z m 247 100 q 352 100 411 129 q 463 155 490 204 q 517 253 517 330 q 517 370 508 402 q 500 435 483 460 q 466 485 443 503 q 419 521 389 533 q 361 543 327 548 q 293 553 250 553 l 198 553 l 198 100 z"},"^":{"x_min":0,"x_max":527,"ha":527,"o":"m 313 666 l 501 250 l 395 250 l 265 556 l 263 556 l 132 250 l 26 250 l 214 666 z"},"0":{"x_min":0,"x_max":515,"ha":515,"o":"m 364 236 q 364 311 336 350 q 309 390 258 390 q 206 390 179 350 q 151 311 151 236 q 151 162 179 122 q 206 83 258 83 q 309 83 336 122 q 364 162 364 236 z m 483 236 q 483 183 469 138 q 455 92 426 59 q 398 26 356 7 q 313 -12 258 -12 q 203 -12 161 7 q 119 26 90 59 q 62 92 47 138 q 32 183 32 236 q 32 290 47 335 q 62 380 90 414 q 119 447 161 466 q 203 485 258 485 q 313 485 356 466 q 398 447 426 414 q 455 380 469 335 q 483 290 483 236 z"},"F":{"x_min":0,"x_max":521,"ha":521,"o":"m 198 0 l 78 0 l 78 653 l 494 653 l 494 553 l 198 553 l 198 384 l 451 384 l 451 284 l 198 284 z"},"`":{"x_min":0,"x_max":391,"ha":391,"o":"m 224 719 l 282 549 l 192 549 l 111 719 z m 0 473 z"},"k":{"x_min":0,"x_max":516,"ha":516,"o":"m 68 707 l 184 707 l 184 281 l 187 281 l 367 473 l 510 473 l 302 251 l 511 0 l 371 0 l 186 220 l 184 220 l 184 0 l 68 0 z"},"u":{"x_min":0,"x_max":545,"ha":545,"o":"m 272 -12 q 201 -12 154 12 q 107 36 83 77 q 71 99 65 125 q 59 152 59 184 l 59 473 l 174 473 l 174 196 q 174 172 178 155 q 181 138 188 125 q 200 104 221 93 q 243 83 272 83 q 304 83 326 94 q 348 106 359 130 q 371 153 371 194 l 371 473 l 486 473 l 486 184 q 486 126 466 87 q 455 64 437 46 q 419 28 395 15 q 371 2 341 -5 q 310 -12 272 -12 z"},"]":{"x_min":0,"x_max":315,"ha":315,"o":"m 247 -146 l 29 -146 l 29 -62 l 147 -62 l 147 569 l 29 569 l 29 653 l 247 653 z"},"U":{"x_min":0,"x_max":700,"ha":700,"o":"m 349 -12 q 297 -12 256 -2 q 215 8 184 27 q 153 45 131 73 q 109 100 96 134 q 85 161 80 194 q 76 228 76 269 l 76 653 l 195 653 l 195 279 q 195 210 212 171 q 230 127 266 108 q 302 89 350 89 q 398 89 434 108 q 470 127 488 171 q 505 210 505 279 l 505 653 l 625 653 l 625 269 q 625 228 620 194 q 615 161 604 134 q 591 100 569 73 q 547 45 515 27 q 483 8 441 -2 q 400 -12 349 -12 z"},"o":{"x_min":0,"x_max":554,"ha":554,"o":"m 395 236 q 395 274 386 303 q 377 332 362 351 q 346 371 324 380 q 302 390 276 390 q 251 390 229 380 q 208 371 192 351 q 176 332 167 303 q 159 274 159 236 q 159 199 167 170 q 176 141 192 122 q 208 103 230 93 q 251 83 277 83 q 303 83 325 93 q 346 103 362 122 q 377 141 386 170 q 395 199 395 236 z m 515 236 q 515 181 498 135 q 481 89 450 56 q 419 23 375 6 q 332 -12 277 -12 q 222 -12 177 6 q 133 23 103 56 q 72 89 55 135 q 39 181 39 236 q 39 292 56 338 q 72 384 103 417 q 134 449 178 467 q 222 485 276 485 q 332 485 376 467 q 420 449 451 417 q 482 384 498 338 q 515 292 515 236 z"},"N":{"x_min":0,"x_max":728,"ha":728,"o":"m 418 350 q 489 250 533 172 l 536 172 q 530 299 530 357 l 530 653 l 649 653 l 649 0 l 524 0 l 311 301 q 255 379 195 482 l 192 482 q 198 362 198 296 l 198 0 l 78 0 l 78 653 l 204 653 z"},"+":{"x_min":0,"x_max":527,"ha":527,"o":"m 56 306 l 215 306 l 215 474 l 312 474 l 312 306 l 472 306 l 472 213 l 312 213 l 312 45 l 215 45 l 215 213 l 56 213 z"},"G":{"x_min":0,"x_max":672,"ha":672,"o":"m 484 250 l 338 250 l 338 350 l 604 350 l 604 20 q 589 15 567 9 q 544 3 516 -2 q 488 -6 458 -9 q 428 -12 399 -12 q 311 -12 245 11 q 180 35 136 78 q 92 121 71 180 q 49 240 49 312 q 49 362 60 408 q 72 455 94 494 q 116 533 148 565 q 180 597 220 619 q 261 642 310 654 q 358 666 414 666 q 463 666 508 658 q 552 651 581 641 l 581 540 q 542 552 504 558 q 465 564 425 564 q 372 564 326 549 q 279 533 245 502 q 211 471 192 425 q 172 380 172 320 q 173 205 233 147 q 293 89 403 89 q 424 89 446 91 q 468 93 484 97 z"},"q":{"x_min":0,"x_max":550,"ha":550,"o":"m 267 80 q 285 80 300 84 q 316 89 329 96 q 342 103 353 111 q 363 119 371 127 l 371 337 q 353 359 327 376 q 301 392 270 393 q 252 393 233 385 q 214 378 197 360 q 180 342 169 310 q 159 278 159 232 q 159 197 166 169 q 172 141 186 121 q 200 101 220 91 q 240 80 267 80 z m 380 420 l 385 473 l 486 473 l 486 -227 l 371 -227 l 371 -30 q 371 -9 371 9 q 372 26 372 36 l 371 36 q 360 27 346 19 q 333 10 316 3 q 299 -4 280 -8 q 260 -12 238 -12 q 201 -12 165 1 q 129 15 101 44 q 73 73 56 119 q 39 165 39 228 q 39 290 56 339 q 74 388 103 420 q 131 452 169 469 q 206 485 246 485 q 288 485 322 467 q 356 449 378 420 z"},"d":{"x_min":0,"x_max":558,"ha":558,"o":"m 267 80 q 284 80 300 84 q 315 89 329 96 q 342 104 353 112 q 363 121 371 129 l 371 354 q 350 371 325 382 q 299 393 271 393 q 253 393 233 385 q 213 378 197 360 q 181 343 170 312 q 159 280 159 232 q 159 161 186 121 q 214 81 267 80 z m 39 227 q 39 289 56 338 q 73 386 103 419 q 132 452 170 469 q 208 485 250 485 q 269 485 286 481 q 303 478 318 472 q 333 466 346 459 q 359 452 371 444 l 372 444 q 371 454 371 471 q 371 489 371 510 l 371 707 l 486 707 l 486 141 q 486 94 487 60 q 488 26 489 0 l 385 0 l 380 50 l 378 50 q 368 38 353 26 q 339 15 322 6 q 304 -2 283 -7 q 263 -12 238 -12 q 200 -12 164 1 q 129 15 101 44 q 73 72 56 118 q 39 165 39 227 z"},"1":{"x_min":0,"x_max":495,"ha":495,"o":"m 208 98 l 208 350 l 44 303 l 44 406 l 235 473 l 324 473 l 324 98 l 462 98 l 462 0 l 54 0 l 54 98 z"},"5":{"x_min":0,"x_max":489,"ha":489,"o":"m 188 217 q 202 218 212 218 q 269 218 312 203 q 356 189 385 162 q 414 136 428 98 q 443 61 443 16 q 443 -30 426 -70 q 409 -110 376 -139 q 344 -168 296 -185 q 248 -202 187 -202 q 146 -202 110 -194 q 74 -186 44 -174 l 44 -73 q 81 -88 114 -95 q 147 -103 178 -103 q 217 -103 245 -94 q 272 -85 290 -70 q 307 -54 315 -33 q 323 -12 323 13 q 323 40 314 61 q 306 82 286 96 q 267 110 237 118 q 208 125 166 125 q 143 125 117 123 q 91 121 61 116 l 111 473 l 442 473 l 442 368 l 209 368 z"}}}
